# xmcd
#
# Track frame offsets: 
#        150
#        16277
#        26982
#        42935
#        53962
#        65872
#        80705
#        103117
#        118687
#        129650
#        145335
#        159837
#        171095
#
# Disc length: 2675 seconds
#
# Revision: 3
# Processed by: cddbd v1.5.2PL0 Copyright (c) Steve Scherf et al.
# Submitted via: ExactAudioCopy v0.99pb4
#
DISCID=ba0a710d
DTITLE=Little Mike and the Tornadoes - Heart Attack
DYEAR=1990
DGENRE=Blues
TTITLE0=Heart Attack
TTITLE1=Never Missed a Woman
TTITLE2=Nothin' but the Blues
TTITLE3=Try My Love
TTITLE4=Blind Love and Whiskey
TTITLE5=Resey's Rock
TTITLE6=Me and the Blues
TTITLE7=One Woman Man
TTITLE8=Christmas Song
TTITLE9=Don't like to Get in Trouble
TTITLE10=Good Gal
TTITLE11=D.O.A.
TTITLE12=Ida B
EXTD=YEAR: 1990
EXTT0=
EXTT1=
EXTT2=
EXTT3=
EXTT4=
EXTT5=
EXTT6=
EXTT7=
EXTT8=
EXTT9=
EXTT10=
EXTT11=
EXTT12=
PLAYORDER=
